Source : NGB

Format : AVI
Format/Info : Audio Video Interleave
File size : 702 MiB
Duration : 1h 39mn
Overall bit rate : 984 Kbps
Writing library : VirtualDub build 32842/release

Video
ID : 0
Format : MPEG-4 Visual
Format profile : Advanced Simple@L5
Format settings, BVOP : 4
Format settings, QPel : No
Format settings, GMC : No warppoints
Format settings, Matrix : Default (H.263)
Muxing mode : Packed bitstream
Codec ID : XVID
Codec ID/Hint : XviD
Duration : 1h 39mn
Bit rate : 847 Kbps
Width : 640 pixels
Height : 352 pixels
Display aspect ratio : 16:9
Frame rate : 23.976 fps
Color space : YUV
Chroma subsampling : 4:2:0
Bit depth : 8 bits
Scan type : Progressive
Compression mode : Lossy
Bits/(Pixel*Frame) : 0.157
Stream size : 604 MiB (86%)
Writing library : XviD 64

Audio
ID : 1
Format : MPEG Audio
Format version : Version 1
Format profile : Layer 3
Codec ID : 55
Codec ID/Hint : MP3
Duration : 1h 39mn
Bit rate mode : Constant
Bit rate : 128 Kbps
Channel(s) : 2 channels
Sampling rate : 44.1 KHz
Compression mode : Lossy
Stream size : 91.3 MiB (13%)
Alignment : Split accross interleaves
Interleave, duration : 42 ms (1.00 video frame)
Interleave, preload duration : 500 ms
Writing library : LAME3.99r
Encoding settings : -m s -V 4 -q 3 -lowpass 17 -b 128


Plot
College student Holly Teller (Elisabeth Harnois) is drawn to the mysterious small
town of Riddle, Pennsylvania in search of her missing brother. Against the will of the
local Sheriff (Val Kilmer) and town elder (William Sadler), she begins to unravel a mystery
connected to an abandoned psychiatric hospital on the edge of town, uncovering a terrifying
past the town in determined to keep hidden.


 
http://www.shotpix.com/images/69566474620116492131.png 
http://www.shotpix.com/images/80390738841490003869.png 
http://www.shotpix.com/images/20614264903709869355.png 
http://www.shotpix.com/images/89940518871619207806.png